<mxfile host="Electron" agent="Mozilla/5.0 (Windows NT 10.0; Win64; x64) AppleWebKit/537.36 (KHTML, like Gecko) draw.io/24.7.17 Chrome/128.0.6613.36 Electron/32.0.1 Safari/537.36" version="24.7.17">
  <diagram name="Страница — 1" id="Nr1EgbhxFDvANYqAfhCM">
    <mxGraphModel dx="472" dy="835" grid="1" gridSize="10" guides="1" tooltips="1" connect="1" arrows="1" fold="1" page="1" pageScale="1" pageWidth="827" pageHeight="1169" math="0" shadow="0">
      <root>
        <mxCell id="0" />
        <mxCell id="1" parent="0" />
        <mxCell id="N0rIZxozmafCJGaahSuK-3" style="edgeStyle=orthogonalEdgeStyle;rounded=0;orthogonalLoop=1;jettySize=auto;html=1;exitX=0.5;exitY=1;exitDx=0;exitDy=0;entryX=0.5;entryY=0;entryDx=0;entryDy=0;" edge="1" parent="1" source="N0rIZxozmafCJGaahSuK-1" target="N0rIZxozmafCJGaahSuK-2">
          <mxGeometry relative="1" as="geometry" />
        </mxCell>
        <mxCell id="N0rIZxozmafCJGaahSuK-1" value="Начало" style="ellipse;whiteSpace=wrap;html=1;" vertex="1" parent="1">
          <mxGeometry x="190" y="390" width="120" height="80" as="geometry" />
        </mxCell>
        <mxCell id="N0rIZxozmafCJGaahSuK-7" style="edgeStyle=orthogonalEdgeStyle;rounded=0;orthogonalLoop=1;jettySize=auto;html=1;exitX=0.5;exitY=1;exitDx=0;exitDy=0;entryX=0.5;entryY=0;entryDx=0;entryDy=0;" edge="1" parent="1" source="N0rIZxozmafCJGaahSuK-2" target="N0rIZxozmafCJGaahSuK-6">
          <mxGeometry relative="1" as="geometry" />
        </mxCell>
        <mxCell id="N0rIZxozmafCJGaahSuK-2" value="&lt;div&gt;x = 2, xPrev = 0;&lt;br&gt;&lt;/div&gt;" style="rounded=0;whiteSpace=wrap;html=1;" vertex="1" parent="1">
          <mxGeometry x="190" y="510" width="120" height="60" as="geometry" />
        </mxCell>
        <mxCell id="N0rIZxozmafCJGaahSuK-4" value="" style="endArrow=none;dashed=1;html=1;dashPattern=1 3;strokeWidth=2;rounded=0;" edge="1" parent="1">
          <mxGeometry width="50" height="50" relative="1" as="geometry">
            <mxPoint x="340" y="490" as="sourcePoint" />
            <mxPoint x="250" y="490" as="targetPoint" />
          </mxGeometry>
        </mxCell>
        <mxCell id="N0rIZxozmafCJGaahSuK-5" value="&lt;div&gt;#include &amp;lt;iostream&amp;gt;&lt;/div&gt;&lt;div&gt;#include &amp;lt;cmath&amp;gt;&lt;/div&gt;&lt;div&gt;using namespace std;&lt;/div&gt;&lt;div&gt;int main()&lt;/div&gt;&lt;div&gt;{&lt;/div&gt;&lt;div&gt;&lt;span style=&quot;white-space-collapse: collapse;&quot;&gt;&lt;span style=&quot;white-space-collapse: preserve;&quot;&gt;&#x9;&lt;/span&gt;setlocale(LC_ALL, &quot;Russian&quot;);&lt;/span&gt;&lt;/div&gt;&lt;div&gt;&lt;span style=&quot;white-space-collapse: collapse;&quot;&gt;&lt;span style=&quot;white-space-collapse: preserve;&quot;&gt;&#x9;&lt;/span&gt;float x, xPrev;&lt;/span&gt;&lt;/div&gt;" style="strokeWidth=2;html=1;shape=mxgraph.flowchart.annotation_1;align=left;pointerEvents=1;" vertex="1" parent="1">
          <mxGeometry x="340" y="440" width="50" height="100" as="geometry" />
        </mxCell>
        <mxCell id="N0rIZxozmafCJGaahSuK-9" style="edgeStyle=orthogonalEdgeStyle;rounded=0;orthogonalLoop=1;jettySize=auto;html=1;exitX=0.5;exitY=1;exitDx=0;exitDy=0;entryX=0.5;entryY=0;entryDx=0;entryDy=0;" edge="1" parent="1" source="N0rIZxozmafCJGaahSuK-6" target="N0rIZxozmafCJGaahSuK-8">
          <mxGeometry relative="1" as="geometry" />
        </mxCell>
        <mxCell id="N0rIZxozmafCJGaahSuK-6" value="double eps = 0.000001;" style="rounded=0;whiteSpace=wrap;html=1;" vertex="1" parent="1">
          <mxGeometry x="190" y="610" width="120" height="60" as="geometry" />
        </mxCell>
        <mxCell id="N0rIZxozmafCJGaahSuK-12" style="edgeStyle=orthogonalEdgeStyle;rounded=0;orthogonalLoop=1;jettySize=auto;html=1;exitX=0.5;exitY=1;exitDx=0;exitDy=0;entryX=0.5;entryY=0;entryDx=0;entryDy=0;" edge="1" parent="1" source="N0rIZxozmafCJGaahSuK-8" target="N0rIZxozmafCJGaahSuK-10">
          <mxGeometry relative="1" as="geometry" />
        </mxCell>
        <mxCell id="N0rIZxozmafCJGaahSuK-16" style="edgeStyle=orthogonalEdgeStyle;rounded=0;orthogonalLoop=1;jettySize=auto;html=1;exitX=1;exitY=0.5;exitDx=0;exitDy=0;entryX=0.5;entryY=0;entryDx=0;entryDy=0;" edge="1" parent="1" source="N0rIZxozmafCJGaahSuK-8" target="N0rIZxozmafCJGaahSuK-15">
          <mxGeometry relative="1" as="geometry">
            <Array as="points">
              <mxPoint x="350" y="750" />
              <mxPoint x="350" y="1060" />
              <mxPoint x="250" y="1060" />
            </Array>
          </mxGeometry>
        </mxCell>
        <mxCell id="N0rIZxozmafCJGaahSuK-8" value="while (abs(x - xPrev) &amp;gt; eps)" style="shape=hexagon;perimeter=hexagonPerimeter2;whiteSpace=wrap;html=1;fixedSize=1;" vertex="1" parent="1">
          <mxGeometry x="190" y="710" width="120" height="80" as="geometry" />
        </mxCell>
        <mxCell id="N0rIZxozmafCJGaahSuK-13" style="edgeStyle=orthogonalEdgeStyle;rounded=0;orthogonalLoop=1;jettySize=auto;html=1;exitX=0.5;exitY=1;exitDx=0;exitDy=0;entryX=0.5;entryY=0;entryDx=0;entryDy=0;" edge="1" parent="1" source="N0rIZxozmafCJGaahSuK-10" target="N0rIZxozmafCJGaahSuK-11">
          <mxGeometry relative="1" as="geometry" />
        </mxCell>
        <mxCell id="N0rIZxozmafCJGaahSuK-10" value="xPrev = x;" style="rounded=0;whiteSpace=wrap;html=1;" vertex="1" parent="1">
          <mxGeometry x="190" y="830" width="120" height="60" as="geometry" />
        </mxCell>
        <mxCell id="N0rIZxozmafCJGaahSuK-11" value="x = xPrev - ((pow(xPrev, 3) - xPrev - 1) / (3 * pow(xPrev, 2) - 1));&amp;nbsp;" style="rounded=0;whiteSpace=wrap;html=1;" vertex="1" parent="1">
          <mxGeometry x="190" y="930" width="120" height="60" as="geometry" />
        </mxCell>
        <mxCell id="N0rIZxozmafCJGaahSuK-14" style="edgeStyle=orthogonalEdgeStyle;rounded=0;orthogonalLoop=1;jettySize=auto;html=1;exitX=0.5;exitY=1;exitDx=0;exitDy=0;entryX=-0.008;entryY=0.425;entryDx=0;entryDy=0;entryPerimeter=0;" edge="1" parent="1" source="N0rIZxozmafCJGaahSuK-11" target="N0rIZxozmafCJGaahSuK-8">
          <mxGeometry relative="1" as="geometry">
            <Array as="points">
              <mxPoint x="250" y="1030" />
              <mxPoint x="140" y="1030" />
              <mxPoint x="140" y="744" />
            </Array>
          </mxGeometry>
        </mxCell>
        <mxCell id="N0rIZxozmafCJGaahSuK-18" style="edgeStyle=orthogonalEdgeStyle;rounded=0;orthogonalLoop=1;jettySize=auto;html=1;exitX=0.5;exitY=1;exitDx=0;exitDy=0;entryX=0.5;entryY=0;entryDx=0;entryDy=0;" edge="1" parent="1" source="N0rIZxozmafCJGaahSuK-15" target="N0rIZxozmafCJGaahSuK-17">
          <mxGeometry relative="1" as="geometry" />
        </mxCell>
        <mxCell id="N0rIZxozmafCJGaahSuK-15" value="cout &amp;lt;&amp;lt; &quot;Корень: &quot; &amp;lt;&amp;lt; x &amp;lt;&amp;lt; endl;" style="shape=parallelogram;perimeter=parallelogramPerimeter;whiteSpace=wrap;html=1;fixedSize=1;" vertex="1" parent="1">
          <mxGeometry x="190" y="1090" width="120" height="60" as="geometry" />
        </mxCell>
        <mxCell id="N0rIZxozmafCJGaahSuK-17" value="Конец" style="ellipse;whiteSpace=wrap;html=1;" vertex="1" parent="1">
          <mxGeometry x="190" y="1190" width="120" height="80" as="geometry" />
        </mxCell>
        <mxCell id="N0rIZxozmafCJGaahSuK-19" value="" style="endArrow=none;dashed=1;html=1;dashPattern=1 3;strokeWidth=2;rounded=0;" edge="1" parent="1">
          <mxGeometry width="50" height="50" relative="1" as="geometry">
            <mxPoint x="340" y="1170" as="sourcePoint" />
            <mxPoint x="250" y="1170" as="targetPoint" />
          </mxGeometry>
        </mxCell>
        <mxCell id="N0rIZxozmafCJGaahSuK-20" value="&lt;div&gt;&lt;span style=&quot;white-space-collapse: collapse;&quot;&gt;&lt;span style=&quot;white-space-collapse: preserve;&quot;&gt;&#x9;&lt;/span&gt;return 0;&lt;/span&gt;&lt;/div&gt;&lt;div&gt;}&lt;/div&gt;" style="strokeWidth=2;html=1;shape=mxgraph.flowchart.annotation_1;align=left;pointerEvents=1;" vertex="1" parent="1">
          <mxGeometry x="340" y="1120" width="50" height="100" as="geometry" />
        </mxCell>
      </root>
    </mxGraphModel>
  </diagram>
</mxfile>
